<mxfile host="app.diagrams.net" modified="2023-09-07T08:35:26.193Z" agent="Mozilla/5.0 (Windows NT 10.0; Win64; x64) AppleWebKit/537.36 (KHTML, like Gecko) Chrome/116.0.0.0 Safari/537.36" etag="Duy_QuDkWsCjo6ZnPbwu" version="21.7.2" type="device">
  <diagram name="Page-1" id="gwcNVK26xJHiNOIdUf98">
    <mxGraphModel dx="4654" dy="2210" grid="1" gridSize="10" guides="1" tooltips="1" connect="1" arrows="1" fold="1" page="1" pageScale="1" pageWidth="850" pageHeight="1100" math="0" shadow="0">
      <root>
        <mxCell id="0" />
        <mxCell id="1" parent="0" />
        <mxCell id="xnrgz-YwZXg7Ub_ZJFDg-3" value="" style="html=1;jettySize=18;whiteSpace=wrap;fontSize=13;strokeColor=#5E5E5E;strokeWidth=1.5;rounded=1;arcSize=12;edgeStyle=orthogonalEdgeStyle;startArrow=none;endArrow=block;endFill=1;exitX=0.526;exitY=1.028;exitPerimeter=0;entryX=0.5;entryY=0;lucidId=rrwD5AMO3i94;entryDx=0;entryDy=0;" parent="1" source="xnrgz-YwZXg7Ub_ZJFDg-16" target="O2ZRJQ_E5Z44itb4C0EZ-2" edge="1">
          <mxGeometry width="100" height="100" relative="1" as="geometry">
            <Array as="points" />
            <mxPoint x="-1333.5" y="-929.1200000000001" as="targetPoint" />
          </mxGeometry>
        </mxCell>
        <mxCell id="xnrgz-YwZXg7Ub_ZJFDg-4" value="" style="html=1;jettySize=18;whiteSpace=wrap;fontSize=13;strokeColor=#5E5E5E;strokeWidth=1.5;rounded=1;arcSize=12;edgeStyle=orthogonalEdgeStyle;startArrow=none;endArrow=block;endFill=1;lucidId=yrwDTi_Wcutn;exitX=0.5;exitY=1;exitDx=0;exitDy=0;" parent="1" source="O2ZRJQ_E5Z44itb4C0EZ-2" edge="1">
          <mxGeometry width="100" height="100" relative="1" as="geometry">
            <Array as="points" />
            <mxPoint x="-1334" y="-734" as="targetPoint" />
            <mxPoint x="-1334" y="-785" as="sourcePoint" />
          </mxGeometry>
        </mxCell>
        <mxCell id="xnrgz-YwZXg7Ub_ZJFDg-5" value="OUI" style="text;html=1;resizable=0;labelBackgroundColor=default;align=center;verticalAlign=middle;fontStyle=1;fontColor=#54c45e;fontSize=16.7;" parent="xnrgz-YwZXg7Ub_ZJFDg-4" vertex="1">
          <mxGeometry x="-0.13879335741205268" relative="1" as="geometry" />
        </mxCell>
        <mxCell id="xnrgz-YwZXg7Ub_ZJFDg-6" value="" style="html=1;jettySize=18;whiteSpace=wrap;fontSize=13;strokeColor=#5E5E5E;strokeWidth=1.5;rounded=1;arcSize=12;edgeStyle=orthogonalEdgeStyle;startArrow=none;endArrow=block;endFill=1;entryX=0.5;entryY=-0.002;entryPerimeter=0;lucidId=0rwDOvbR6CMJ;" parent="1" target="xnrgz-YwZXg7Ub_ZJFDg-10" edge="1">
          <mxGeometry width="100" height="100" relative="1" as="geometry">
            <Array as="points" />
            <mxPoint x="-1334" y="-689" as="sourcePoint" />
          </mxGeometry>
        </mxCell>
        <mxCell id="xnrgz-YwZXg7Ub_ZJFDg-7" value="il reste des recettes à parcourir" style="text;html=1;resizable=0;labelBackgroundColor=default;align=center;verticalAlign=middle;fontStyle=1;fontColor=#333333;fontSize=16.7;" parent="xnrgz-YwZXg7Ub_ZJFDg-6" vertex="1">
          <mxGeometry x="-0.17325927618343573" relative="1" as="geometry" />
        </mxCell>
        <mxCell id="O2ZRJQ_E5Z44itb4C0EZ-24" style="edgeStyle=orthogonalEdgeStyle;rounded=0;orthogonalLoop=1;jettySize=auto;html=1;exitX=0.5;exitY=1;exitDx=0;exitDy=0;entryX=0.5;entryY=0;entryDx=0;entryDy=0;" parent="1" source="xnrgz-YwZXg7Ub_ZJFDg-10" target="O2ZRJQ_E5Z44itb4C0EZ-5" edge="1">
          <mxGeometry relative="1" as="geometry" />
        </mxCell>
        <mxCell id="xnrgz-YwZXg7Ub_ZJFDg-10" value="&lt;font style=&quot;font-size: 14px;&quot;&gt;mot clé = nom de la recette?&lt;/font&gt;" style="html=1;overflow=block;blockSpacing=1;whiteSpace=wrap;rhombus;fontSize=16;align=center;spacing=3.8;strokeColor=#b85450;strokeOpacity=100;fillOpacity=100;rounded=1;absoluteArcSize=1;arcSize=9;fillColor=#f8cecc;strokeWidth=2.3;lucidId=dAhFD03Q7MZh;" parent="1" vertex="1">
          <mxGeometry x="-1443" y="-603.86" width="218" height="94" as="geometry" />
        </mxCell>
        <mxCell id="O2ZRJQ_E5Z44itb4C0EZ-28" style="edgeStyle=orthogonalEdgeStyle;rounded=0;orthogonalLoop=1;jettySize=auto;html=1;exitX=1;exitY=0;exitDx=0;exitDy=0;" parent="1" source="xnrgz-YwZXg7Ub_ZJFDg-11" target="xnrgz-YwZXg7Ub_ZJFDg-27" edge="1">
          <mxGeometry relative="1" as="geometry">
            <Array as="points">
              <mxPoint x="-1244" y="-720" />
              <mxPoint x="-1141" y="-720" />
              <mxPoint x="-1141" y="-762" />
            </Array>
            <mxPoint x="-1018" y="-887.5" as="targetPoint" />
          </mxGeometry>
        </mxCell>
        <mxCell id="xnrgz-YwZXg7Ub_ZJFDg-11" value="&lt;font style=&quot;font-size: 14px;&quot;&gt;Parcours Liste recettes&lt;/font&gt;" style="html=1;overflow=block;blockSpacing=1;whiteSpace=wrap;fontSize=16;fontColor=default;align=center;spacing=9;strokeColor=#5e5e5e;strokeOpacity=100;fillOpacity=100;rounded=1;absoluteArcSize=1;arcSize=9;fillColor=#edf5ff;strokeWidth=2.3;lucidId=cKhFH0v02lax;" parent="1" vertex="1">
          <mxGeometry x="-1424" y="-734" width="180" height="44" as="geometry" />
        </mxCell>
        <mxCell id="xnrgz-YwZXg7Ub_ZJFDg-16" value="recherche" style="html=1;overflow=block;blockSpacing=1;whiteSpace=wrap;fontSize=16.7;fontColor=#333333;align=center;spacing=9;strokeColor=#5e5e5e;strokeOpacity=100;fillOpacity=100;rounded=1;absoluteArcSize=1;arcSize=9;fillColor=#edf5ff;strokeWidth=2.3;lucidId=jfPGNH_yGsVG;" parent="1" vertex="1">
          <mxGeometry x="-1412" y="-995" width="148" height="40" as="geometry" />
        </mxCell>
        <mxCell id="xnrgz-YwZXg7Ub_ZJFDg-17" value="Start" style="html=1;overflow=block;blockSpacing=1;whiteSpace=wrap;rounded=1;arcSize=50;fontSize=16.7;fontColor=#333333;align=center;spacing=3.8;strokeColor=#5e5e5e;strokeOpacity=100;fillOpacity=100;fillColor=#cfe4ff;strokeWidth=2.3;lucidId=2fPGb9LOZm7-;" parent="1" vertex="1">
          <mxGeometry x="-1412" y="-1085" width="152" height="45" as="geometry" />
        </mxCell>
        <mxCell id="xnrgz-YwZXg7Ub_ZJFDg-18" value="" style="html=1;jettySize=18;whiteSpace=wrap;fontSize=13;strokeColor=#5E5E5E;strokeWidth=1.5;rounded=1;arcSize=12;edgeStyle=orthogonalEdgeStyle;startArrow=none;endArrow=block;endFill=1;exitX=0.5;exitY=1.025;exitPerimeter=0;entryX=0.512;entryY=-0.028;entryPerimeter=0;lucidId=egPGji4aAZVq;" parent="1" source="xnrgz-YwZXg7Ub_ZJFDg-17" target="xnrgz-YwZXg7Ub_ZJFDg-16" edge="1">
          <mxGeometry width="100" height="100" relative="1" as="geometry">
            <Array as="points" />
          </mxGeometry>
        </mxCell>
        <mxCell id="xnrgz-YwZXg7Ub_ZJFDg-19" value="enregistre la recette courante dans L1" style="html=1;overflow=block;blockSpacing=1;whiteSpace=wrap;fontSize=16;align=center;spacing=9;strokeColor=#82b366;strokeOpacity=100;fillOpacity=100;rounded=1;absoluteArcSize=1;arcSize=9;fillColor=#d5e8d4;strokeWidth=2.3;lucidId=ehPG0yM4La9k;" parent="1" vertex="1">
          <mxGeometry x="-1644" y="-659.86" width="180" height="56" as="geometry" />
        </mxCell>
        <mxCell id="xnrgz-YwZXg7Ub_ZJFDg-20" value="" style="html=1;jettySize=18;whiteSpace=wrap;fontSize=16.7;fontColor=#54c45e;fontStyle=1;align=center;strokeColor=#5E5E5E;strokeWidth=1.5;rounded=1;arcSize=12;edgeStyle=orthogonalEdgeStyle;startArrow=none;endArrow=block;endFill=1;exitX=0.007;exitY=0.5;exitPerimeter=0;lucidId=~hPG5gJokqIP;entryX=0.5;entryY=1;entryDx=0;entryDy=0;" parent="1" source="xnrgz-YwZXg7Ub_ZJFDg-10" target="xnrgz-YwZXg7Ub_ZJFDg-19" edge="1">
          <mxGeometry width="100" height="100" relative="1" as="geometry">
            <Array as="points" />
            <mxPoint x="-1554" y="-505" as="targetPoint" />
          </mxGeometry>
        </mxCell>
        <mxCell id="xnrgz-YwZXg7Ub_ZJFDg-21" value="OUI" style="text;html=1;resizable=0;labelBackgroundColor=default;align=center;verticalAlign=middle;fontStyle=1;fontColor=#54c45e;fontSize=16.7;" parent="xnrgz-YwZXg7Ub_ZJFDg-20" vertex="1">
          <mxGeometry x="-0.19240946251324453" relative="1" as="geometry">
            <mxPoint x="10" as="offset" />
          </mxGeometry>
        </mxCell>
        <mxCell id="xnrgz-YwZXg7Ub_ZJFDg-22" value="" style="html=1;jettySize=18;whiteSpace=wrap;fontSize=13;strokeColor=#5E5E5E;strokeWidth=1.5;rounded=1;arcSize=12;edgeStyle=orthogonalEdgeStyle;startArrow=none;endArrow=block;endFill=1;entryX=0;entryY=0.75;lucidId=niPGL.~IIo-G;exitX=0.5;exitY=0;exitDx=0;exitDy=0;entryDx=0;entryDy=0;" parent="1" source="xnrgz-YwZXg7Ub_ZJFDg-19" target="xnrgz-YwZXg7Ub_ZJFDg-11" edge="1">
          <mxGeometry width="100" height="100" relative="1" as="geometry">
            <Array as="points">
              <mxPoint x="-1554" y="-700" />
            </Array>
            <mxPoint x="-1602" y="-705" as="sourcePoint" />
          </mxGeometry>
        </mxCell>
        <mxCell id="xnrgz-YwZXg7Ub_ZJFDg-23" value="" style="html=1;jettySize=18;whiteSpace=wrap;fontSize=13;strokeColor=#5E5E5E;strokeWidth=1.5;rounded=1;arcSize=12;edgeStyle=orthogonalEdgeStyle;startArrow=none;endArrow=block;endFill=1;exitX=0.5;exitY=1;entryX=0.493;entryY=-0.002;entryPerimeter=0;lucidId=wvPG9wtmYPKw;exitDx=0;exitDy=0;" parent="1" source="O2ZRJQ_E5Z44itb4C0EZ-43" target="xnrgz-YwZXg7Ub_ZJFDg-27" edge="1">
          <mxGeometry width="100" height="100" relative="1" as="geometry">
            <Array as="points" />
            <mxPoint x="-942" y="-863.8750000000002" as="sourcePoint" />
          </mxGeometry>
        </mxCell>
        <mxCell id="O2ZRJQ_E5Z44itb4C0EZ-65" style="edgeStyle=orthogonalEdgeStyle;rounded=0;orthogonalLoop=1;jettySize=auto;html=1;exitX=1;exitY=0.25;exitDx=0;exitDy=0;entryX=0.313;entryY=0.15;entryDx=0;entryDy=0;entryPerimeter=0;" parent="1" source="xnrgz-YwZXg7Ub_ZJFDg-24" edge="1">
          <mxGeometry relative="1" as="geometry">
            <mxPoint x="-425.7049999999999" y="-792.0999999999999" as="targetPoint" />
            <Array as="points">
              <mxPoint x="-640" y="-627" />
              <mxPoint x="-640" y="-792" />
            </Array>
          </mxGeometry>
        </mxCell>
        <mxCell id="xnrgz-YwZXg7Ub_ZJFDg-24" value="parcours L1" style="html=1;overflow=block;blockSpacing=1;whiteSpace=wrap;fontSize=16.7;fontColor=#333333;align=center;spacing=9;strokeColor=#5e5e5e;strokeOpacity=100;fillOpacity=100;rounded=1;absoluteArcSize=1;arcSize=9;fillColor=#edf5ff;strokeWidth=2.3;lucidId=zvPG_esJNQwt;" parent="1" vertex="1">
          <mxGeometry x="-1037" y="-641" width="191" height="56" as="geometry" />
        </mxCell>
        <mxCell id="xnrgz-YwZXg7Ub_ZJFDg-25" value="" style="html=1;jettySize=18;whiteSpace=wrap;fontSize=13;strokeColor=#5E5E5E;strokeWidth=1.5;rounded=1;arcSize=12;edgeStyle=orthogonalEdgeStyle;startArrow=none;endArrow=block;endFill=1;exitX=0.5;exitY=1.003;exitPerimeter=0;entryX=0.5;entryY=-0.025;entryPerimeter=0;lucidId=iwPGJLFzas6g;" parent="1" source="xnrgz-YwZXg7Ub_ZJFDg-27" target="xnrgz-YwZXg7Ub_ZJFDg-24" edge="1">
          <mxGeometry width="100" height="100" relative="1" as="geometry">
            <Array as="points" />
          </mxGeometry>
        </mxCell>
        <mxCell id="xnrgz-YwZXg7Ub_ZJFDg-26" value="OUI" style="text;html=1;resizable=0;labelBackgroundColor=default;align=center;verticalAlign=middle;fontStyle=1;fontColor=#54c45e;fontSize=16.7;" parent="xnrgz-YwZXg7Ub_ZJFDg-25" vertex="1">
          <mxGeometry relative="1" as="geometry" />
        </mxCell>
        <mxCell id="xnrgz-YwZXg7Ub_ZJFDg-27" value="Tags ingrédients sélectionné?" style="html=1;overflow=block;blockSpacing=1;whiteSpace=wrap;rhombus;fontSize=16.7;align=center;spacing=3.8;strokeColor=#b85450;strokeOpacity=100;fillOpacity=100;rounded=1;absoluteArcSize=1;arcSize=9;fillColor=#f8cecc;strokeWidth=2.3;lucidId=GwPGZan3JmAi;" parent="1" vertex="1">
          <mxGeometry x="-1048" y="-805" width="215" height="86" as="geometry" />
        </mxCell>
        <mxCell id="xnrgz-YwZXg7Ub_ZJFDg-29" value="" style="html=1;jettySize=18;whiteSpace=wrap;fontSize=13;strokeColor=#5E5E5E;strokeWidth=1.5;rounded=1;arcSize=12;edgeStyle=orthogonalEdgeStyle;startArrow=none;endArrow=block;endFill=1;exitX=0.5;exitY=1.025;exitPerimeter=0;entryX=0.5;entryY=0;lucidId=mAPGdp5QwOhR;entryDx=0;entryDy=0;" parent="1" source="xnrgz-YwZXg7Ub_ZJFDg-24" target="O2ZRJQ_E5Z44itb4C0EZ-48" edge="1">
          <mxGeometry width="100" height="100" relative="1" as="geometry">
            <Array as="points" />
            <mxPoint x="-941.3700000000001" y="-490.21000000000026" as="targetPoint" />
          </mxGeometry>
        </mxCell>
        <mxCell id="xnrgz-YwZXg7Ub_ZJFDg-30" value="il reste des recettes à parcourir" style="text;html=1;resizable=0;labelBackgroundColor=default;align=center;verticalAlign=middle;fontStyle=1;fontColor=#333333;fontSize=16.7;" parent="xnrgz-YwZXg7Ub_ZJFDg-29" vertex="1">
          <mxGeometry x="-0.1259861174966317" relative="1" as="geometry">
            <mxPoint x="-8" y="-18" as="offset" />
          </mxGeometry>
        </mxCell>
        <mxCell id="xnrgz-YwZXg7Ub_ZJFDg-31" value="enregistre la recette courante dans L2" style="html=1;overflow=block;blockSpacing=1;whiteSpace=wrap;fontSize=16.7;align=center;spacing=9;strokeColor=#82b366;strokeOpacity=100;fillOpacity=100;rounded=1;absoluteArcSize=1;arcSize=9;fillColor=#d5e8d4;strokeWidth=2.3;lucidId=TAPGWNGDD4iq;" parent="1" vertex="1">
          <mxGeometry x="-820" y="-571" width="191" height="58" as="geometry" />
        </mxCell>
        <mxCell id="xnrgz-YwZXg7Ub_ZJFDg-34" value="" style="html=1;jettySize=18;whiteSpace=wrap;fontSize=13;strokeColor=#5E5E5E;strokeWidth=1.5;rounded=1;arcSize=12;edgeStyle=orthogonalEdgeStyle;startArrow=none;endArrow=block;endFill=1;exitX=0.5;exitY=-0.019;exitPerimeter=0;lucidId=rBPGEclfCITo;entryX=1;entryY=0.75;entryDx=0;entryDy=0;" parent="1" source="xnrgz-YwZXg7Ub_ZJFDg-31" target="xnrgz-YwZXg7Ub_ZJFDg-24" edge="1">
          <mxGeometry width="100" height="100" relative="1" as="geometry">
            <Array as="points">
              <mxPoint x="-724" y="-600" />
              <mxPoint x="-846" y="-600" />
            </Array>
            <mxPoint x="-690" y="-630" as="targetPoint" />
          </mxGeometry>
        </mxCell>
        <mxCell id="xnrgz-YwZXg7Ub_ZJFDg-87" style="edgeStyle=orthogonalEdgeStyle;rounded=0;orthogonalLoop=1;jettySize=auto;html=1;exitX=1;exitY=0.5;exitDx=0;exitDy=0;entryX=0.5;entryY=0;entryDx=0;entryDy=0;" parent="1" source="xnrgz-YwZXg7Ub_ZJFDg-37" edge="1">
          <mxGeometry relative="1" as="geometry">
            <mxPoint x="-385.5" y="-805" as="targetPoint" />
          </mxGeometry>
        </mxCell>
        <mxCell id="xnrgz-YwZXg7Ub_ZJFDg-37" value="L2 = L1" style="html=1;overflow=block;blockSpacing=1;whiteSpace=wrap;fontSize=16.7;align=center;spacing=9;strokeColor=#82b366;strokeOpacity=100;fillOpacity=100;rounded=1;absoluteArcSize=1;arcSize=9;fillColor=#d5e8d4;strokeWidth=2.3;lucidId=PHPGCfV96wsI;" parent="1" vertex="1">
          <mxGeometry x="-800" y="-903" width="115" height="38" as="geometry" />
        </mxCell>
        <mxCell id="xnrgz-YwZXg7Ub_ZJFDg-38" value="" style="html=1;jettySize=18;whiteSpace=wrap;fontSize=16.7;fontColor=#e81313;fontStyle=1;align=center;strokeColor=#5E5E5E;strokeWidth=1.5;rounded=1;arcSize=12;edgeStyle=orthogonalEdgeStyle;startArrow=none;endArrow=block;endFill=1;exitX=0.991;exitY=0.5;exitPerimeter=0;entryX=0.5;entryY=1;lucidId=-IPG75gQ_DbJ;entryDx=0;entryDy=0;" parent="1" source="xnrgz-YwZXg7Ub_ZJFDg-27" target="xnrgz-YwZXg7Ub_ZJFDg-37" edge="1">
          <mxGeometry width="100" height="100" relative="1" as="geometry">
            <Array as="points" />
          </mxGeometry>
        </mxCell>
        <mxCell id="xnrgz-YwZXg7Ub_ZJFDg-39" value="NON" style="text;html=1;resizable=0;labelBackgroundColor=default;align=center;verticalAlign=middle;fontStyle=1;fontColor=#e81313;fontSize=16.7;" parent="xnrgz-YwZXg7Ub_ZJFDg-38" vertex="1">
          <mxGeometry relative="1" as="geometry">
            <mxPoint x="-43" y="4" as="offset" />
          </mxGeometry>
        </mxCell>
        <mxCell id="xnrgz-YwZXg7Ub_ZJFDg-108" value="" style="html=1;jettySize=18;whiteSpace=wrap;fontSize=13;strokeColor=#5E5E5E;strokeWidth=1.5;rounded=1;arcSize=12;edgeStyle=orthogonalEdgeStyle;startArrow=none;endArrow=block;endFill=1;entryX=0.5;entryY=1;lucidId=iwPGJLFzas6g;entryDx=0;entryDy=0;exitX=0.922;exitY=0.602;exitDx=0;exitDy=0;exitPerimeter=0;" parent="1" source="O2ZRJQ_E5Z44itb4C0EZ-47" target="xnrgz-YwZXg7Ub_ZJFDg-31" edge="1">
          <mxGeometry width="100" height="100" relative="1" as="geometry">
            <Array as="points">
              <mxPoint x="-724" y="-322" />
            </Array>
            <mxPoint x="-724" y="-260" as="sourcePoint" />
            <mxPoint x="-776.05" y="-338" as="targetPoint" />
          </mxGeometry>
        </mxCell>
        <mxCell id="xnrgz-YwZXg7Ub_ZJFDg-109" value="OUI" style="text;html=1;resizable=0;labelBackgroundColor=default;align=center;verticalAlign=middle;fontStyle=1;fontColor=#54c45e;fontSize=16.7;" parent="xnrgz-YwZXg7Ub_ZJFDg-108" vertex="1">
          <mxGeometry relative="1" as="geometry">
            <mxPoint y="-43" as="offset" />
          </mxGeometry>
        </mxCell>
        <mxCell id="xnrgz-YwZXg7Ub_ZJFDg-113" style="edgeStyle=orthogonalEdgeStyle;rounded=0;orthogonalLoop=1;jettySize=auto;html=1;exitX=0.5;exitY=1;exitDx=0;exitDy=0;entryX=0.5;entryY=0;entryDx=0;entryDy=0;" parent="1" source="xnrgz-YwZXg7Ub_ZJFDg-111" target="xnrgz-YwZXg7Ub_ZJFDg-112" edge="1">
          <mxGeometry relative="1" as="geometry" />
        </mxCell>
        <mxCell id="xnrgz-YwZXg7Ub_ZJFDg-111" value="Afficher L4" style="html=1;overflow=block;blockSpacing=1;whiteSpace=wrap;fontSize=16.7;align=center;spacing=9;strokeColor=#d79b00;strokeOpacity=100;fillOpacity=100;rounded=1;absoluteArcSize=1;arcSize=9;fillColor=#ffe6cc;strokeWidth=2.3;lucidId=oXPG3qvpg2EX;" parent="1" vertex="1">
          <mxGeometry x="651" y="-760" width="150" height="57" as="geometry" />
        </mxCell>
        <mxCell id="xnrgz-YwZXg7Ub_ZJFDg-112" value="End" style="html=1;overflow=block;blockSpacing=1;whiteSpace=wrap;rounded=1;arcSize=50;fontSize=16.7;fontColor=#333333;align=center;spacing=3.8;strokeColor=#5e5e5e;strokeOpacity=100;fillOpacity=100;fillColor=#cfe4ff;strokeWidth=2.3;lucidId=VujFLK2T3m6l;" parent="1" vertex="1">
          <mxGeometry x="650" y="-605" width="152" height="45" as="geometry" />
        </mxCell>
        <mxCell id="O2ZRJQ_E5Z44itb4C0EZ-44" style="edgeStyle=orthogonalEdgeStyle;rounded=0;orthogonalLoop=1;jettySize=auto;html=1;exitX=1;exitY=0.5;exitDx=0;exitDy=0;entryX=0;entryY=0.5;entryDx=0;entryDy=0;" parent="1" source="O2ZRJQ_E5Z44itb4C0EZ-2" target="O2ZRJQ_E5Z44itb4C0EZ-43" edge="1">
          <mxGeometry relative="1" as="geometry">
            <Array as="points">
              <mxPoint x="-1180" y="-861" />
              <mxPoint x="-1180" y="-1000" />
            </Array>
          </mxGeometry>
        </mxCell>
        <mxCell id="O2ZRJQ_E5Z44itb4C0EZ-2" value="&amp;nbsp;3&lt;br&gt;caractères min. ?" style="html=1;overflow=block;blockSpacing=1;whiteSpace=wrap;rhombus;fontSize=16;align=center;spacing=3.8;strokeColor=#b85450;strokeOpacity=100;fillOpacity=100;rounded=1;absoluteArcSize=1;arcSize=9;fillColor=#f8cecc;strokeWidth=2.3;lucidId=dAhFD03Q7MZh;" parent="1" vertex="1">
          <mxGeometry x="-1434" y="-910" width="200" height="98" as="geometry" />
        </mxCell>
        <mxCell id="O2ZRJQ_E5Z44itb4C0EZ-17" style="edgeStyle=orthogonalEdgeStyle;rounded=0;orthogonalLoop=1;jettySize=auto;html=1;exitX=0.5;exitY=1;exitDx=0;exitDy=0;" parent="1" source="O2ZRJQ_E5Z44itb4C0EZ-5" target="O2ZRJQ_E5Z44itb4C0EZ-16" edge="1">
          <mxGeometry relative="1" as="geometry" />
        </mxCell>
        <mxCell id="O2ZRJQ_E5Z44itb4C0EZ-5" value="mot clé = description?" style="html=1;overflow=block;blockSpacing=1;whiteSpace=wrap;rhombus;fontSize=16;align=center;spacing=3.8;strokeColor=#b85450;strokeOpacity=100;fillOpacity=100;rounded=1;absoluteArcSize=1;arcSize=9;fillColor=#f8cecc;strokeWidth=2.3;lucidId=dAhFD03Q7MZh;" parent="1" vertex="1">
          <mxGeometry x="-1443" y="-440" width="218" height="110" as="geometry" />
        </mxCell>
        <mxCell id="O2ZRJQ_E5Z44itb4C0EZ-13" value="" style="html=1;jettySize=18;whiteSpace=wrap;fontSize=16.7;fontColor=#54c45e;fontStyle=1;align=center;strokeColor=#5E5E5E;strokeWidth=1.5;rounded=1;arcSize=12;edgeStyle=orthogonalEdgeStyle;startArrow=none;endArrow=block;endFill=1;exitX=0;exitY=0.5;lucidId=~hPG5gJokqIP;exitDx=0;exitDy=0;entryX=0.5;entryY=1;entryDx=0;entryDy=0;" parent="1" source="O2ZRJQ_E5Z44itb4C0EZ-5" target="xnrgz-YwZXg7Ub_ZJFDg-19" edge="1">
          <mxGeometry width="100" height="100" relative="1" as="geometry">
            <Array as="points">
              <mxPoint x="-1554" y="-385" />
            </Array>
            <mxPoint x="-1471" y="-354" as="sourcePoint" />
            <mxPoint x="-1604" y="-515" as="targetPoint" />
          </mxGeometry>
        </mxCell>
        <mxCell id="O2ZRJQ_E5Z44itb4C0EZ-14" value="OUI" style="text;html=1;resizable=0;labelBackgroundColor=default;align=center;verticalAlign=middle;fontStyle=1;fontColor=#54c45e;fontSize=16.7;" parent="O2ZRJQ_E5Z44itb4C0EZ-13" vertex="1">
          <mxGeometry x="-0.19240946251324453" relative="1" as="geometry">
            <mxPoint x="60" y="20" as="offset" />
          </mxGeometry>
        </mxCell>
        <mxCell id="O2ZRJQ_E5Z44itb4C0EZ-27" style="edgeStyle=orthogonalEdgeStyle;rounded=0;orthogonalLoop=1;jettySize=auto;html=1;exitX=1;exitY=0.5;exitDx=0;exitDy=0;entryX=1;entryY=0.75;entryDx=0;entryDy=0;" parent="1" source="O2ZRJQ_E5Z44itb4C0EZ-16" target="xnrgz-YwZXg7Ub_ZJFDg-11" edge="1">
          <mxGeometry relative="1" as="geometry">
            <Array as="points">
              <mxPoint x="-1239" y="-240" />
              <mxPoint x="-1190" y="-240" />
              <mxPoint x="-1190" y="-700" />
            </Array>
          </mxGeometry>
        </mxCell>
        <mxCell id="O2ZRJQ_E5Z44itb4C0EZ-33" style="edgeStyle=orthogonalEdgeStyle;rounded=0;orthogonalLoop=1;jettySize=auto;html=1;exitX=0.5;exitY=1;exitDx=0;exitDy=0;entryX=0.5;entryY=0;entryDx=0;entryDy=0;" parent="1" source="O2ZRJQ_E5Z44itb4C0EZ-16" target="O2ZRJQ_E5Z44itb4C0EZ-30" edge="1">
          <mxGeometry relative="1" as="geometry" />
        </mxCell>
        <mxCell id="O2ZRJQ_E5Z44itb4C0EZ-16" value="Parcours ingredients de recette courante" style="html=1;overflow=block;blockSpacing=1;whiteSpace=wrap;fontSize=16;fontColor=default;align=center;spacing=9;strokeColor=#5e5e5e;strokeOpacity=100;fillOpacity=100;rounded=1;absoluteArcSize=1;arcSize=9;fillColor=#edf5ff;strokeWidth=2.3;lucidId=cKhFH0v02lax;" parent="1" vertex="1">
          <mxGeometry x="-1429" y="-260" width="190" height="60" as="geometry" />
        </mxCell>
        <mxCell id="O2ZRJQ_E5Z44itb4C0EZ-9" value="&lt;span style=&quot;color: rgb(232, 19, 19); font-family: Helvetica; font-size: 17px; font-style: normal; font-variant-ligatures: normal; font-variant-caps: normal; font-weight: 700; letter-spacing: normal; orphans: 2; text-align: center; text-indent: 0px; text-transform: none; widows: 2; word-spacing: 0px; -webkit-text-stroke-width: 0px; background-color: rgb(255, 255, 255); text-decoration-thickness: initial; text-decoration-style: initial; text-decoration-color: initial; float: none; display: inline !important;&quot;&gt;NON&lt;/span&gt;" style="text;whiteSpace=wrap;html=1;" parent="1" vertex="1">
          <mxGeometry x="-1349" y="-490" width="30" height="30" as="geometry" />
        </mxCell>
        <mxCell id="O2ZRJQ_E5Z44itb4C0EZ-29" value="&lt;span style=&quot;color: rgb(51, 51, 51); font-family: Helvetica; font-size: 17px; font-style: normal; font-variant-ligatures: normal; font-variant-caps: normal; font-weight: 700; letter-spacing: normal; orphans: 2; text-align: center; text-indent: 0px; text-transform: none; widows: 2; word-spacing: 0px; -webkit-text-stroke-width: 0px; background-color: rgb(255, 255, 255); text-decoration-thickness: initial; text-decoration-style: initial; text-decoration-color: initial; float: none; display: inline !important;&quot;&gt;fin de parcours des recettes&lt;br&gt;&lt;br&gt;&lt;/span&gt;" style="text;whiteSpace=wrap;html=1;" parent="1" vertex="1">
          <mxGeometry x="-1217.5" y="-805" width="180" height="40" as="geometry" />
        </mxCell>
        <mxCell id="O2ZRJQ_E5Z44itb4C0EZ-34" style="edgeStyle=orthogonalEdgeStyle;rounded=0;orthogonalLoop=1;jettySize=auto;html=1;exitX=1;exitY=0.5;exitDx=0;exitDy=0;entryX=1;entryY=0.75;entryDx=0;entryDy=0;" parent="1" source="O2ZRJQ_E5Z44itb4C0EZ-30" target="O2ZRJQ_E5Z44itb4C0EZ-16" edge="1">
          <mxGeometry relative="1" as="geometry" />
        </mxCell>
        <mxCell id="O2ZRJQ_E5Z44itb4C0EZ-37" style="edgeStyle=orthogonalEdgeStyle;rounded=0;orthogonalLoop=1;jettySize=auto;html=1;exitX=0;exitY=0.5;exitDx=0;exitDy=0;entryX=0.5;entryY=1;entryDx=0;entryDy=0;" parent="1" source="O2ZRJQ_E5Z44itb4C0EZ-30" target="xnrgz-YwZXg7Ub_ZJFDg-19" edge="1">
          <mxGeometry relative="1" as="geometry" />
        </mxCell>
        <mxCell id="O2ZRJQ_E5Z44itb4C0EZ-30" value="mot clé = ingrédient?" style="html=1;overflow=block;blockSpacing=1;whiteSpace=wrap;rhombus;fontSize=16;align=center;spacing=3.8;strokeColor=#b85450;strokeOpacity=100;fillOpacity=100;rounded=1;absoluteArcSize=1;arcSize=9;fillColor=#f8cecc;strokeWidth=2.3;lucidId=dAhFD03Q7MZh;" parent="1" vertex="1">
          <mxGeometry x="-1445" y="-140" width="222" height="100" as="geometry" />
        </mxCell>
        <mxCell id="O2ZRJQ_E5Z44itb4C0EZ-31" value="il reste des ingredients à parcourir" style="text;html=1;resizable=0;labelBackgroundColor=default;align=center;verticalAlign=middle;fontStyle=1;fontColor=#333333;fontSize=16.7;" parent="1" vertex="1">
          <mxGeometry x="-1360" y="-169.99666666666673" as="geometry" />
        </mxCell>
        <mxCell id="O2ZRJQ_E5Z44itb4C0EZ-32" value="&lt;span style=&quot;color: rgb(232, 19, 19); font-family: Helvetica; font-size: 17px; font-style: normal; font-variant-ligatures: normal; font-variant-caps: normal; font-weight: 700; letter-spacing: normal; orphans: 2; text-align: center; text-indent: 0px; text-transform: none; widows: 2; word-spacing: 0px; -webkit-text-stroke-width: 0px; background-color: rgb(255, 255, 255); text-decoration-thickness: initial; text-decoration-style: initial; text-decoration-color: initial; float: none; display: inline !important;&quot;&gt;NON&lt;/span&gt;" style="text;whiteSpace=wrap;html=1;" parent="1" vertex="1">
          <mxGeometry x="-1349" y="-320" width="30" height="30" as="geometry" />
        </mxCell>
        <mxCell id="O2ZRJQ_E5Z44itb4C0EZ-35" value="&lt;span style=&quot;color: rgb(232, 19, 19); font-family: Helvetica; font-size: 17px; font-style: normal; font-variant-ligatures: normal; font-variant-caps: normal; font-weight: 700; letter-spacing: normal; orphans: 2; text-align: center; text-indent: 0px; text-transform: none; widows: 2; word-spacing: 0px; -webkit-text-stroke-width: 0px; background-color: rgb(255, 255, 255); text-decoration-thickness: initial; text-decoration-style: initial; text-decoration-color: initial; float: none; display: inline !important;&quot;&gt;NON&lt;/span&gt;" style="text;whiteSpace=wrap;html=1;" parent="1" vertex="1">
          <mxGeometry x="-1217" y="-179" width="30" height="30" as="geometry" />
        </mxCell>
        <mxCell id="O2ZRJQ_E5Z44itb4C0EZ-38" value="OUI" style="text;html=1;resizable=0;labelBackgroundColor=default;align=center;verticalAlign=middle;fontStyle=1;fontColor=#54c45e;fontSize=16.7;" parent="1" vertex="1">
          <mxGeometry x="-1499" y="-375.3333333333335" as="geometry">
            <mxPoint x="5" y="285" as="offset" />
          </mxGeometry>
        </mxCell>
        <mxCell id="O2ZRJQ_E5Z44itb4C0EZ-43" value="L1 = recettes" style="html=1;overflow=block;blockSpacing=1;whiteSpace=wrap;fontSize=16.7;align=center;spacing=9;strokeColor=#82b366;strokeOpacity=100;fillOpacity=100;rounded=1;absoluteArcSize=1;arcSize=9;fillColor=#d5e8d4;strokeWidth=2.3;lucidId=jfPGNH_yGsVG;" parent="1" vertex="1">
          <mxGeometry x="-1004.75" y="-1030" width="125.5" height="60" as="geometry" />
        </mxCell>
        <mxCell id="O2ZRJQ_E5Z44itb4C0EZ-46" value="NON" style="text;html=1;resizable=0;labelBackgroundColor=default;align=center;verticalAlign=middle;fontStyle=1;fontColor=#e81313;fontSize=16.7;" parent="1" vertex="1">
          <mxGeometry x="-1105" y="-605.8597359767864" as="geometry">
            <mxPoint x="-76" y="-327" as="offset" />
          </mxGeometry>
        </mxCell>
        <mxCell id="O2ZRJQ_E5Z44itb4C0EZ-54" style="edgeStyle=orthogonalEdgeStyle;rounded=0;orthogonalLoop=1;jettySize=auto;html=1;entryX=1;entryY=0.5;entryDx=0;entryDy=0;" parent="1" source="O2ZRJQ_E5Z44itb4C0EZ-47" target="O2ZRJQ_E5Z44itb4C0EZ-48" edge="1">
          <mxGeometry relative="1" as="geometry">
            <Array as="points">
              <mxPoint x="-826" y="-482" />
            </Array>
          </mxGeometry>
        </mxCell>
        <mxCell id="O2ZRJQ_E5Z44itb4C0EZ-47" value="La recette contient-elle l&#39;ingredient selectionné?" style="html=1;overflow=block;blockSpacing=1;whiteSpace=wrap;rhombus;fontSize=16.7;align=center;spacing=3.8;strokeColor=#b85450;strokeOpacity=100;fillOpacity=100;rounded=1;absoluteArcSize=1;arcSize=9;fillColor=#f8cecc;strokeWidth=2.3;lucidId=wxPGZghKXOwq;" parent="1" vertex="1">
          <mxGeometry x="-1079" y="-385" width="274" height="105" as="geometry" />
        </mxCell>
        <mxCell id="O2ZRJQ_E5Z44itb4C0EZ-53" style="edgeStyle=orthogonalEdgeStyle;rounded=0;orthogonalLoop=1;jettySize=auto;html=1;exitX=0.5;exitY=1;exitDx=0;exitDy=0;entryX=0.5;entryY=0;entryDx=0;entryDy=0;" parent="1" source="O2ZRJQ_E5Z44itb4C0EZ-48" target="O2ZRJQ_E5Z44itb4C0EZ-47" edge="1">
          <mxGeometry relative="1" as="geometry" />
        </mxCell>
        <mxCell id="x6GWotwJrIF0XYn0G7Yb-131" style="edgeStyle=orthogonalEdgeStyle;rounded=0;orthogonalLoop=1;jettySize=auto;html=1;entryX=0;entryY=0.75;entryDx=0;entryDy=0;" parent="1" edge="1">
          <mxGeometry relative="1" as="geometry">
            <mxPoint x="-942" y="-516.7200000000001" as="sourcePoint" />
            <mxPoint x="-1037" y="-605.86" as="targetPoint" />
            <Array as="points">
              <mxPoint x="-942" y="-500" />
              <mxPoint x="-1110" y="-500" />
              <mxPoint x="-1110" y="-606" />
            </Array>
          </mxGeometry>
        </mxCell>
        <mxCell id="O2ZRJQ_E5Z44itb4C0EZ-48" value="parcours des tags&amp;nbsp;" style="html=1;overflow=block;blockSpacing=1;whiteSpace=wrap;fontSize=16.7;fontColor=#333333;align=center;spacing=9;strokeColor=#5e5e5e;strokeOpacity=100;fillOpacity=100;rounded=1;absoluteArcSize=1;arcSize=9;fillColor=#edf5ff;strokeWidth=2.3;lucidId=zvPG_esJNQwt;" parent="1" vertex="1">
          <mxGeometry x="-1037.5" y="-509.86" width="191" height="56" as="geometry" />
        </mxCell>
        <mxCell id="O2ZRJQ_E5Z44itb4C0EZ-49" value="fin de parcours &lt;br&gt;des tags" style="text;html=1;resizable=0;labelBackgroundColor=default;align=center;verticalAlign=middle;fontStyle=1;fontColor=#333333;fontSize=16.7;" parent="1" vertex="1">
          <mxGeometry x="-1120.0004883463687" y="-519.9978158168254" as="geometry">
            <mxPoint x="-5" y="-3" as="offset" />
          </mxGeometry>
        </mxCell>
        <mxCell id="O2ZRJQ_E5Z44itb4C0EZ-50" value="il reste des tags à parcourir" style="text;html=1;resizable=0;labelBackgroundColor=default;align=center;verticalAlign=middle;fontStyle=1;fontColor=#333333;fontSize=16.7;" parent="1" vertex="1">
          <mxGeometry x="-960.0004883463687" y="-439.99781581682544" as="geometry" />
        </mxCell>
        <mxCell id="O2ZRJQ_E5Z44itb4C0EZ-57" value="NON" style="text;html=1;resizable=0;labelBackgroundColor=default;align=center;verticalAlign=middle;fontStyle=1;fontColor=#e81313;fontSize=16.7;" parent="1" vertex="1">
          <mxGeometry x="-765.6016666666667" y="-721.9999999999998" as="geometry">
            <mxPoint x="-62" y="309" as="offset" />
          </mxGeometry>
        </mxCell>
        <mxCell id="O2ZRJQ_E5Z44itb4C0EZ-66" value="fin de parcours des recettes" style="text;html=1;resizable=0;labelBackgroundColor=default;align=center;verticalAlign=middle;fontStyle=1;fontColor=#333333;fontSize=16.7;" parent="1" vertex="1">
          <mxGeometry x="-930.0005162718701" y="-528.4889186696482" as="geometry">
            <mxPoint x="286" y="-177" as="offset" />
          </mxGeometry>
        </mxCell>
        <mxCell id="O2ZRJQ_E5Z44itb4C0EZ-67" value="" style="html=1;jettySize=18;whiteSpace=wrap;fontSize=13;strokeColor=#5E5E5E;strokeWidth=1.5;rounded=1;arcSize=12;edgeStyle=orthogonalEdgeStyle;startArrow=none;endArrow=block;endFill=1;exitX=0.5;exitY=1.025;exitPerimeter=0;entryX=0.493;entryY=-0.002;entryPerimeter=0;lucidId=wvPG9wtmYPKw;" parent="1" target="O2ZRJQ_E5Z44itb4C0EZ-72" edge="1">
          <mxGeometry width="100" height="100" relative="1" as="geometry">
            <Array as="points" />
            <mxPoint x="-386" y="-864" as="sourcePoint" />
          </mxGeometry>
        </mxCell>
        <mxCell id="O2ZRJQ_E5Z44itb4C0EZ-68" style="edgeStyle=orthogonalEdgeStyle;rounded=0;orthogonalLoop=1;jettySize=auto;html=1;exitX=1;exitY=0.25;exitDx=0;exitDy=0;entryX=0.313;entryY=0.15;entryDx=0;entryDy=0;entryPerimeter=0;" parent="1" source="O2ZRJQ_E5Z44itb4C0EZ-69" edge="1">
          <mxGeometry relative="1" as="geometry">
            <mxPoint x="130.29500000000007" y="-792.0999999999999" as="targetPoint" />
            <Array as="points">
              <mxPoint x="-84" y="-627" />
              <mxPoint x="-84" y="-792" />
            </Array>
          </mxGeometry>
        </mxCell>
        <mxCell id="O2ZRJQ_E5Z44itb4C0EZ-69" value="parcours L2" style="html=1;overflow=block;blockSpacing=1;whiteSpace=wrap;fontSize=16.7;fontColor=#333333;align=center;spacing=9;strokeColor=#5e5e5e;strokeOpacity=100;fillOpacity=100;rounded=1;absoluteArcSize=1;arcSize=9;fillColor=#edf5ff;strokeWidth=2.3;lucidId=zvPG_esJNQwt;" parent="1" vertex="1">
          <mxGeometry x="-481" y="-641" width="191" height="56" as="geometry" />
        </mxCell>
        <mxCell id="O2ZRJQ_E5Z44itb4C0EZ-70" value="" style="html=1;jettySize=18;whiteSpace=wrap;fontSize=13;strokeColor=#5E5E5E;strokeWidth=1.5;rounded=1;arcSize=12;edgeStyle=orthogonalEdgeStyle;startArrow=none;endArrow=block;endFill=1;exitX=0.5;exitY=1.003;exitPerimeter=0;entryX=0.5;entryY=-0.025;entryPerimeter=0;lucidId=iwPGJLFzas6g;" parent="1" source="O2ZRJQ_E5Z44itb4C0EZ-72" target="O2ZRJQ_E5Z44itb4C0EZ-69" edge="1">
          <mxGeometry width="100" height="100" relative="1" as="geometry">
            <Array as="points" />
          </mxGeometry>
        </mxCell>
        <mxCell id="O2ZRJQ_E5Z44itb4C0EZ-71" value="OUI" style="text;html=1;resizable=0;labelBackgroundColor=default;align=center;verticalAlign=middle;fontStyle=1;fontColor=#54c45e;fontSize=16.7;" parent="O2ZRJQ_E5Z44itb4C0EZ-70" vertex="1">
          <mxGeometry relative="1" as="geometry" />
        </mxCell>
        <mxCell id="O2ZRJQ_E5Z44itb4C0EZ-72" value="tag appareil sélectionné" style="html=1;overflow=block;blockSpacing=1;whiteSpace=wrap;rhombus;fontSize=16.7;align=center;spacing=3.8;strokeColor=#b85450;strokeOpacity=100;fillOpacity=100;rounded=1;absoluteArcSize=1;arcSize=9;fillColor=#f8cecc;strokeWidth=2.3;lucidId=GwPGZan3JmAi;" parent="1" vertex="1">
          <mxGeometry x="-492" y="-805" width="215" height="86" as="geometry" />
        </mxCell>
        <mxCell id="O2ZRJQ_E5Z44itb4C0EZ-73" value="" style="html=1;jettySize=18;whiteSpace=wrap;fontSize=13;strokeColor=#5E5E5E;strokeWidth=1.5;rounded=1;arcSize=12;edgeStyle=orthogonalEdgeStyle;startArrow=none;endArrow=block;endFill=1;exitX=0.5;exitY=1.025;exitPerimeter=0;lucidId=mAPGdp5QwOhR;" parent="1" source="O2ZRJQ_E5Z44itb4C0EZ-69" edge="1">
          <mxGeometry width="100" height="100" relative="1" as="geometry">
            <Array as="points" />
            <mxPoint x="-386" y="-390" as="targetPoint" />
          </mxGeometry>
        </mxCell>
        <mxCell id="O2ZRJQ_E5Z44itb4C0EZ-74" value="il reste des recettes à parcourir" style="text;html=1;resizable=0;labelBackgroundColor=default;align=center;verticalAlign=middle;fontStyle=1;fontColor=#333333;fontSize=16.7;" parent="O2ZRJQ_E5Z44itb4C0EZ-73" vertex="1">
          <mxGeometry x="-0.1259861174966317" relative="1" as="geometry">
            <mxPoint y="9" as="offset" />
          </mxGeometry>
        </mxCell>
        <mxCell id="O2ZRJQ_E5Z44itb4C0EZ-75" value="enregistre la recette courante dans L3" style="html=1;overflow=block;blockSpacing=1;whiteSpace=wrap;fontSize=16.7;align=center;spacing=9;strokeColor=#82b366;strokeOpacity=100;fillOpacity=100;rounded=1;absoluteArcSize=1;arcSize=9;fillColor=#d5e8d4;strokeWidth=2.3;lucidId=TAPGWNGDD4iq;" parent="1" vertex="1">
          <mxGeometry x="-264" y="-571" width="191" height="58" as="geometry" />
        </mxCell>
        <mxCell id="O2ZRJQ_E5Z44itb4C0EZ-76" value="" style="html=1;jettySize=18;whiteSpace=wrap;fontSize=13;strokeColor=#5E5E5E;strokeWidth=1.5;rounded=1;arcSize=12;edgeStyle=orthogonalEdgeStyle;startArrow=none;endArrow=block;endFill=1;exitX=0.5;exitY=-0.019;exitPerimeter=0;lucidId=rBPGEclfCITo;entryX=1;entryY=0.75;entryDx=0;entryDy=0;" parent="1" source="O2ZRJQ_E5Z44itb4C0EZ-75" target="O2ZRJQ_E5Z44itb4C0EZ-69" edge="1">
          <mxGeometry width="100" height="100" relative="1" as="geometry">
            <Array as="points">
              <mxPoint x="-168" y="-600" />
              <mxPoint x="-290" y="-600" />
            </Array>
            <mxPoint x="-134" y="-630" as="targetPoint" />
          </mxGeometry>
        </mxCell>
        <mxCell id="O2ZRJQ_E5Z44itb4C0EZ-78" style="edgeStyle=orthogonalEdgeStyle;rounded=0;orthogonalLoop=1;jettySize=auto;html=1;exitX=1;exitY=0.5;exitDx=0;exitDy=0;entryX=0.5;entryY=0;entryDx=0;entryDy=0;" parent="1" source="O2ZRJQ_E5Z44itb4C0EZ-79" edge="1">
          <mxGeometry relative="1" as="geometry">
            <mxPoint x="170.5" y="-805" as="targetPoint" />
          </mxGeometry>
        </mxCell>
        <mxCell id="O2ZRJQ_E5Z44itb4C0EZ-79" value="L3 = L2" style="html=1;overflow=block;blockSpacing=1;whiteSpace=wrap;fontSize=16.7;align=center;spacing=9;strokeColor=#82b366;strokeOpacity=100;fillOpacity=100;rounded=1;absoluteArcSize=1;arcSize=9;fillColor=#d5e8d4;strokeWidth=2.3;lucidId=PHPGCfV96wsI;" parent="1" vertex="1">
          <mxGeometry x="-244" y="-903" width="115" height="38" as="geometry" />
        </mxCell>
        <mxCell id="O2ZRJQ_E5Z44itb4C0EZ-80" value="" style="html=1;jettySize=18;whiteSpace=wrap;fontSize=16.7;fontColor=#e81313;fontStyle=1;align=center;strokeColor=#5E5E5E;strokeWidth=1.5;rounded=1;arcSize=12;edgeStyle=orthogonalEdgeStyle;startArrow=none;endArrow=block;endFill=1;exitX=0.991;exitY=0.5;exitPerimeter=0;entryX=0.5;entryY=1;lucidId=-IPG75gQ_DbJ;entryDx=0;entryDy=0;" parent="1" source="O2ZRJQ_E5Z44itb4C0EZ-72" target="O2ZRJQ_E5Z44itb4C0EZ-79" edge="1">
          <mxGeometry width="100" height="100" relative="1" as="geometry">
            <Array as="points" />
          </mxGeometry>
        </mxCell>
        <mxCell id="O2ZRJQ_E5Z44itb4C0EZ-81" value="NON" style="text;html=1;resizable=0;labelBackgroundColor=default;align=center;verticalAlign=middle;fontStyle=1;fontColor=#e81313;fontSize=16.7;" parent="O2ZRJQ_E5Z44itb4C0EZ-80" vertex="1">
          <mxGeometry relative="1" as="geometry">
            <mxPoint x="-43" y="4" as="offset" />
          </mxGeometry>
        </mxCell>
        <mxCell id="O2ZRJQ_E5Z44itb4C0EZ-82" value="" style="html=1;jettySize=18;whiteSpace=wrap;fontSize=13;strokeColor=#5E5E5E;strokeWidth=1.5;rounded=1;arcSize=12;edgeStyle=orthogonalEdgeStyle;startArrow=none;endArrow=block;endFill=1;entryX=0.5;entryY=1;lucidId=iwPGJLFzas6g;entryDx=0;entryDy=0;exitX=0.922;exitY=0.602;exitDx=0;exitDy=0;exitPerimeter=0;" parent="1" source="O2ZRJQ_E5Z44itb4C0EZ-86" target="O2ZRJQ_E5Z44itb4C0EZ-75" edge="1">
          <mxGeometry width="100" height="100" relative="1" as="geometry">
            <Array as="points">
              <mxPoint x="-168" y="-322" />
            </Array>
            <mxPoint x="-168" y="-260" as="sourcePoint" />
            <mxPoint x="-220.04999999999995" y="-338" as="targetPoint" />
          </mxGeometry>
        </mxCell>
        <mxCell id="O2ZRJQ_E5Z44itb4C0EZ-83" value="OUI" style="text;html=1;resizable=0;labelBackgroundColor=default;align=center;verticalAlign=middle;fontStyle=1;fontColor=#54c45e;fontSize=16.7;" parent="O2ZRJQ_E5Z44itb4C0EZ-82" vertex="1">
          <mxGeometry relative="1" as="geometry">
            <mxPoint y="-43" as="offset" />
          </mxGeometry>
        </mxCell>
        <mxCell id="O2ZRJQ_E5Z44itb4C0EZ-86" value="La recette contient-elle l&#39;appareil selectionné?" style="html=1;overflow=block;blockSpacing=1;whiteSpace=wrap;rhombus;fontSize=16.7;align=center;spacing=3.8;strokeColor=#b85450;strokeOpacity=100;fillOpacity=100;rounded=1;absoluteArcSize=1;arcSize=9;fillColor=#f8cecc;strokeWidth=2.3;lucidId=wxPGZghKXOwq;" parent="1" vertex="1">
          <mxGeometry x="-523" y="-385" width="274" height="105" as="geometry" />
        </mxCell>
        <mxCell id="O2ZRJQ_E5Z44itb4C0EZ-91" value="NON" style="text;html=1;resizable=0;labelBackgroundColor=default;align=center;verticalAlign=middle;fontStyle=1;fontColor=#e81313;fontSize=16.7;" parent="1" vertex="1">
          <mxGeometry x="-244.0016666666667" y="-739.9999999999998" as="geometry">
            <mxPoint x="-62" y="309" as="offset" />
          </mxGeometry>
        </mxCell>
        <mxCell id="O2ZRJQ_E5Z44itb4C0EZ-92" value="fin de parcours des recettes" style="text;html=1;resizable=0;labelBackgroundColor=default;align=center;verticalAlign=middle;fontStyle=1;fontColor=#333333;fontSize=16.7;" parent="1" vertex="1">
          <mxGeometry x="-374.0005162718701" y="-528.4889186696482" as="geometry">
            <mxPoint x="286" y="-177" as="offset" />
          </mxGeometry>
        </mxCell>
        <mxCell id="O2ZRJQ_E5Z44itb4C0EZ-93" value="" style="html=1;jettySize=18;whiteSpace=wrap;fontSize=13;strokeColor=#5E5E5E;strokeWidth=1.5;rounded=1;arcSize=12;edgeStyle=orthogonalEdgeStyle;startArrow=none;endArrow=block;endFill=1;exitX=0.5;exitY=1.025;exitPerimeter=0;entryX=0.493;entryY=-0.002;entryPerimeter=0;lucidId=wvPG9wtmYPKw;" parent="1" target="O2ZRJQ_E5Z44itb4C0EZ-98" edge="1">
          <mxGeometry width="100" height="100" relative="1" as="geometry">
            <Array as="points" />
            <mxPoint x="169.99999999999994" y="-864" as="sourcePoint" />
          </mxGeometry>
        </mxCell>
        <mxCell id="O2ZRJQ_E5Z44itb4C0EZ-94" style="edgeStyle=orthogonalEdgeStyle;rounded=0;orthogonalLoop=1;jettySize=auto;html=1;exitX=1;exitY=0.25;exitDx=0;exitDy=0;entryX=0;entryY=0.5;entryDx=0;entryDy=0;" parent="1" source="O2ZRJQ_E5Z44itb4C0EZ-95" target="xnrgz-YwZXg7Ub_ZJFDg-111" edge="1">
          <mxGeometry relative="1" as="geometry">
            <mxPoint x="686.2950000000001" y="-792.0999999999999" as="targetPoint" />
            <Array as="points">
              <mxPoint x="472" y="-627" />
              <mxPoint x="472" y="-731" />
            </Array>
          </mxGeometry>
        </mxCell>
        <mxCell id="O2ZRJQ_E5Z44itb4C0EZ-95" value="parcours L3" style="html=1;overflow=block;blockSpacing=1;whiteSpace=wrap;fontSize=16.7;fontColor=#333333;align=center;spacing=9;strokeColor=#5e5e5e;strokeOpacity=100;fillOpacity=100;rounded=1;absoluteArcSize=1;arcSize=9;fillColor=#edf5ff;strokeWidth=2.3;lucidId=zvPG_esJNQwt;" parent="1" vertex="1">
          <mxGeometry x="74.99999999999994" y="-641" width="191" height="56" as="geometry" />
        </mxCell>
        <mxCell id="O2ZRJQ_E5Z44itb4C0EZ-96" value="" style="html=1;jettySize=18;whiteSpace=wrap;fontSize=13;strokeColor=#5E5E5E;strokeWidth=1.5;rounded=1;arcSize=12;edgeStyle=orthogonalEdgeStyle;startArrow=none;endArrow=block;endFill=1;exitX=0.5;exitY=1.003;exitPerimeter=0;entryX=0.5;entryY=-0.025;entryPerimeter=0;lucidId=iwPGJLFzas6g;" parent="1" source="O2ZRJQ_E5Z44itb4C0EZ-98" target="O2ZRJQ_E5Z44itb4C0EZ-95" edge="1">
          <mxGeometry width="100" height="100" relative="1" as="geometry">
            <Array as="points" />
          </mxGeometry>
        </mxCell>
        <mxCell id="O2ZRJQ_E5Z44itb4C0EZ-97" value="OUI" style="text;html=1;resizable=0;labelBackgroundColor=default;align=center;verticalAlign=middle;fontStyle=1;fontColor=#54c45e;fontSize=16.7;" parent="O2ZRJQ_E5Z44itb4C0EZ-96" vertex="1">
          <mxGeometry relative="1" as="geometry" />
        </mxCell>
        <mxCell id="O2ZRJQ_E5Z44itb4C0EZ-98" value="tags ustensiles sélectionné" style="html=1;overflow=block;blockSpacing=1;whiteSpace=wrap;rhombus;fontSize=16.7;align=center;spacing=3.8;strokeColor=#b85450;strokeOpacity=100;fillOpacity=100;rounded=1;absoluteArcSize=1;arcSize=9;fillColor=#f8cecc;strokeWidth=2.3;lucidId=GwPGZan3JmAi;" parent="1" vertex="1">
          <mxGeometry x="63.99999999999994" y="-805" width="215" height="86" as="geometry" />
        </mxCell>
        <mxCell id="O2ZRJQ_E5Z44itb4C0EZ-99" value="" style="html=1;jettySize=18;whiteSpace=wrap;fontSize=13;strokeColor=#5E5E5E;strokeWidth=1.5;rounded=1;arcSize=12;edgeStyle=orthogonalEdgeStyle;startArrow=none;endArrow=block;endFill=1;exitX=0.5;exitY=1.025;exitPerimeter=0;entryX=0.5;entryY=0;lucidId=mAPGdp5QwOhR;entryDx=0;entryDy=0;" parent="1" source="O2ZRJQ_E5Z44itb4C0EZ-95" target="O2ZRJQ_E5Z44itb4C0EZ-114" edge="1">
          <mxGeometry width="100" height="100" relative="1" as="geometry">
            <Array as="points" />
            <mxPoint x="170.62999999999982" y="-490.21000000000026" as="targetPoint" />
          </mxGeometry>
        </mxCell>
        <mxCell id="O2ZRJQ_E5Z44itb4C0EZ-100" value="il reste des recettes à parcourir" style="text;html=1;resizable=0;labelBackgroundColor=default;align=center;verticalAlign=middle;fontStyle=1;fontColor=#333333;fontSize=16.7;" parent="O2ZRJQ_E5Z44itb4C0EZ-99" vertex="1">
          <mxGeometry x="-0.1259861174966317" relative="1" as="geometry">
            <mxPoint x="-10" y="-8" as="offset" />
          </mxGeometry>
        </mxCell>
        <mxCell id="x6GWotwJrIF0XYn0G7Yb-139" style="edgeStyle=orthogonalEdgeStyle;rounded=0;orthogonalLoop=1;jettySize=auto;html=1;exitX=0;exitY=0;exitDx=0;exitDy=0;" parent="O2ZRJQ_E5Z44itb4C0EZ-99" source="O2ZRJQ_E5Z44itb4C0EZ-100" target="O2ZRJQ_E5Z44itb4C0EZ-100" edge="1">
          <mxGeometry relative="1" as="geometry" />
        </mxCell>
        <mxCell id="O2ZRJQ_E5Z44itb4C0EZ-101" value="enregistre la recette courante dans L4" style="html=1;overflow=block;blockSpacing=1;whiteSpace=wrap;fontSize=16.7;align=center;spacing=9;strokeColor=#82b366;strokeOpacity=100;fillOpacity=100;rounded=1;absoluteArcSize=1;arcSize=9;fillColor=#d5e8d4;strokeWidth=2.3;lucidId=TAPGWNGDD4iq;" parent="1" vertex="1">
          <mxGeometry x="291.99999999999994" y="-571" width="191" height="58" as="geometry" />
        </mxCell>
        <mxCell id="O2ZRJQ_E5Z44itb4C0EZ-102" value="" style="html=1;jettySize=18;whiteSpace=wrap;fontSize=13;strokeColor=#5E5E5E;strokeWidth=1.5;rounded=1;arcSize=12;edgeStyle=orthogonalEdgeStyle;startArrow=none;endArrow=block;endFill=1;exitX=0.5;exitY=-0.019;exitPerimeter=0;lucidId=rBPGEclfCITo;entryX=1;entryY=0.75;entryDx=0;entryDy=0;" parent="1" source="O2ZRJQ_E5Z44itb4C0EZ-101" target="O2ZRJQ_E5Z44itb4C0EZ-95" edge="1">
          <mxGeometry width="100" height="100" relative="1" as="geometry">
            <Array as="points">
              <mxPoint x="387.99999999999994" y="-600" />
              <mxPoint x="265.99999999999994" y="-600" />
            </Array>
            <mxPoint x="421.99999999999994" y="-630" as="targetPoint" />
          </mxGeometry>
        </mxCell>
        <mxCell id="O2ZRJQ_E5Z44itb4C0EZ-103" value="" style="html=1;jettySize=18;whiteSpace=wrap;fontSize=16.7;fontColor=#e81313;fontStyle=1;align=center;strokeColor=#5E5E5E;strokeWidth=1.5;rounded=1;arcSize=12;edgeStyle=orthogonalEdgeStyle;startArrow=none;endArrow=block;endFill=1;exitX=0;exitY=0.5;entryX=0;entryY=0.5;lucidId=TBPGmbi_TxIV;exitDx=0;exitDy=0;entryDx=0;entryDy=0;" parent="1" source="O2ZRJQ_E5Z44itb4C0EZ-114" target="O2ZRJQ_E5Z44itb4C0EZ-95" edge="1">
          <mxGeometry width="100" height="100" relative="1" as="geometry">
            <Array as="points">
              <mxPoint x="75" y="-480" />
              <mxPoint y="-480" />
              <mxPoint y="-620" />
              <mxPoint x="75" y="-620" />
            </Array>
            <mxPoint x="36.917999999999836" y="-437.5" as="sourcePoint" />
          </mxGeometry>
        </mxCell>
        <mxCell id="O2ZRJQ_E5Z44itb4C0EZ-104" style="edgeStyle=orthogonalEdgeStyle;rounded=0;orthogonalLoop=1;jettySize=auto;html=1;exitX=1;exitY=0.5;exitDx=0;exitDy=0;entryX=0.5;entryY=0;entryDx=0;entryDy=0;" parent="1" source="O2ZRJQ_E5Z44itb4C0EZ-105" target="xnrgz-YwZXg7Ub_ZJFDg-111" edge="1">
          <mxGeometry relative="1" as="geometry">
            <mxPoint x="726.5" y="-805" as="targetPoint" />
          </mxGeometry>
        </mxCell>
        <mxCell id="O2ZRJQ_E5Z44itb4C0EZ-105" value="L4 = L3" style="html=1;overflow=block;blockSpacing=1;whiteSpace=wrap;fontSize=16.7;align=center;spacing=9;strokeColor=#82b366;strokeOpacity=100;fillOpacity=100;rounded=1;absoluteArcSize=1;arcSize=9;fillColor=#d5e8d4;strokeWidth=2.3;lucidId=PHPGCfV96wsI;" parent="1" vertex="1">
          <mxGeometry x="459.99999999999994" y="-843" width="115" height="38" as="geometry" />
        </mxCell>
        <mxCell id="O2ZRJQ_E5Z44itb4C0EZ-106" value="" style="html=1;jettySize=18;whiteSpace=wrap;fontSize=16.7;fontColor=#e81313;fontStyle=1;align=center;strokeColor=#5E5E5E;strokeWidth=1.5;rounded=1;arcSize=12;edgeStyle=orthogonalEdgeStyle;startArrow=none;endArrow=block;endFill=1;exitX=0.991;exitY=0.5;exitPerimeter=0;entryX=0;entryY=0.5;lucidId=-IPG75gQ_DbJ;entryDx=0;entryDy=0;" parent="1" source="O2ZRJQ_E5Z44itb4C0EZ-98" target="O2ZRJQ_E5Z44itb4C0EZ-105" edge="1">
          <mxGeometry width="100" height="100" relative="1" as="geometry">
            <Array as="points" />
          </mxGeometry>
        </mxCell>
        <mxCell id="O2ZRJQ_E5Z44itb4C0EZ-107" value="NON" style="text;html=1;resizable=0;labelBackgroundColor=default;align=center;verticalAlign=middle;fontStyle=1;fontColor=#e81313;fontSize=16.7;" parent="O2ZRJQ_E5Z44itb4C0EZ-106" vertex="1">
          <mxGeometry relative="1" as="geometry">
            <mxPoint x="-40" y="28" as="offset" />
          </mxGeometry>
        </mxCell>
        <mxCell id="O2ZRJQ_E5Z44itb4C0EZ-108" value="" style="html=1;jettySize=18;whiteSpace=wrap;fontSize=13;strokeColor=#5E5E5E;strokeWidth=1.5;rounded=1;arcSize=12;edgeStyle=orthogonalEdgeStyle;startArrow=none;endArrow=block;endFill=1;entryX=0.5;entryY=1;lucidId=iwPGJLFzas6g;entryDx=0;entryDy=0;exitX=0.922;exitY=0.602;exitDx=0;exitDy=0;exitPerimeter=0;" parent="1" source="O2ZRJQ_E5Z44itb4C0EZ-112" target="O2ZRJQ_E5Z44itb4C0EZ-101" edge="1">
          <mxGeometry width="100" height="100" relative="1" as="geometry">
            <Array as="points">
              <mxPoint x="387.99999999999994" y="-322" />
            </Array>
            <mxPoint x="387.99999999999994" y="-260" as="sourcePoint" />
            <mxPoint x="335.95" y="-338" as="targetPoint" />
          </mxGeometry>
        </mxCell>
        <mxCell id="O2ZRJQ_E5Z44itb4C0EZ-109" value="OUI" style="text;html=1;resizable=0;labelBackgroundColor=default;align=center;verticalAlign=middle;fontStyle=1;fontColor=#54c45e;fontSize=16.7;" parent="O2ZRJQ_E5Z44itb4C0EZ-108" vertex="1">
          <mxGeometry relative="1" as="geometry">
            <mxPoint y="-43" as="offset" />
          </mxGeometry>
        </mxCell>
        <mxCell id="O2ZRJQ_E5Z44itb4C0EZ-111" style="edgeStyle=orthogonalEdgeStyle;rounded=0;orthogonalLoop=1;jettySize=auto;html=1;entryX=1;entryY=0.5;entryDx=0;entryDy=0;" parent="1" source="O2ZRJQ_E5Z44itb4C0EZ-112" target="O2ZRJQ_E5Z44itb4C0EZ-114" edge="1">
          <mxGeometry relative="1" as="geometry">
            <Array as="points">
              <mxPoint x="285.99999999999994" y="-482" />
            </Array>
          </mxGeometry>
        </mxCell>
        <mxCell id="O2ZRJQ_E5Z44itb4C0EZ-112" value="la recette contient-elle l&#39;ustensil selectionné?" style="html=1;overflow=block;blockSpacing=1;whiteSpace=wrap;rhombus;fontSize=16.7;align=center;spacing=3.8;strokeColor=#b85450;strokeOpacity=100;fillOpacity=100;rounded=1;absoluteArcSize=1;arcSize=9;fillColor=#f8cecc;strokeWidth=2.3;lucidId=wxPGZghKXOwq;" parent="1" vertex="1">
          <mxGeometry x="32.99999999999994" y="-385" width="274" height="105" as="geometry" />
        </mxCell>
        <mxCell id="O2ZRJQ_E5Z44itb4C0EZ-113" style="edgeStyle=orthogonalEdgeStyle;rounded=0;orthogonalLoop=1;jettySize=auto;html=1;exitX=0.5;exitY=1;exitDx=0;exitDy=0;entryX=0.5;entryY=0;entryDx=0;entryDy=0;" parent="1" source="O2ZRJQ_E5Z44itb4C0EZ-114" target="O2ZRJQ_E5Z44itb4C0EZ-112" edge="1">
          <mxGeometry relative="1" as="geometry" />
        </mxCell>
        <mxCell id="O2ZRJQ_E5Z44itb4C0EZ-114" value="parcours des tags&amp;nbsp;" style="html=1;overflow=block;blockSpacing=1;whiteSpace=wrap;fontSize=16.7;fontColor=#333333;align=center;spacing=9;strokeColor=#5e5e5e;strokeOpacity=100;fillOpacity=100;rounded=1;absoluteArcSize=1;arcSize=9;fillColor=#edf5ff;strokeWidth=2.3;lucidId=zvPG_esJNQwt;" parent="1" vertex="1">
          <mxGeometry x="74.49999999999994" y="-509.86" width="191" height="56" as="geometry" />
        </mxCell>
        <mxCell id="O2ZRJQ_E5Z44itb4C0EZ-115" value="fin de parcours&lt;br style=&quot;border-color: var(--border-color);&quot;&gt;des tags" style="text;html=1;resizable=0;labelBackgroundColor=default;align=center;verticalAlign=middle;fontStyle=1;fontColor=#333333;fontSize=16.7;" parent="1" vertex="1">
          <mxGeometry x="6.999511653631259" y="-519.9978158168254" as="geometry">
            <mxPoint x="-5" y="-3" as="offset" />
          </mxGeometry>
        </mxCell>
        <mxCell id="O5vsKDW0K3qQkv62i4YU-1" value="" style="edgeStyle=orthogonalEdgeStyle;rounded=0;orthogonalLoop=1;jettySize=auto;html=1;" parent="1" target="O2ZRJQ_E5Z44itb4C0EZ-114" edge="1">
          <mxGeometry relative="1" as="geometry">
            <mxPoint x="169.999511653632" y="-419.99781581682555" as="sourcePoint" />
          </mxGeometry>
        </mxCell>
        <mxCell id="O2ZRJQ_E5Z44itb4C0EZ-117" value="NON" style="text;html=1;resizable=0;labelBackgroundColor=default;align=center;verticalAlign=middle;fontStyle=1;fontColor=#e81313;fontSize=16.7;" parent="1" vertex="1">
          <mxGeometry x="346.39833333333326" y="-721.9999999999998" as="geometry">
            <mxPoint x="-62" y="309" as="offset" />
          </mxGeometry>
        </mxCell>
        <mxCell id="O2ZRJQ_E5Z44itb4C0EZ-118" value="fin de parcours des recettes" style="text;html=1;resizable=0;labelBackgroundColor=default;align=center;verticalAlign=middle;fontStyle=1;fontColor=#333333;fontSize=16.7;" parent="1" vertex="1">
          <mxGeometry x="181.99948372812986" y="-501.4889186696482" as="geometry">
            <mxPoint x="286" y="-177" as="offset" />
          </mxGeometry>
        </mxCell>
        <mxCell id="x6GWotwJrIF0XYn0G7Yb-7" value="&lt;span style=&quot;color: rgb(51, 51, 51); font-family: Helvetica; font-size: 17px; font-style: normal; font-variant-ligatures: normal; font-variant-caps: normal; font-weight: 700; letter-spacing: normal; orphans: 2; text-align: center; text-indent: 0px; text-transform: none; widows: 2; word-spacing: 0px; -webkit-text-stroke-width: 0px; background-color: rgb(255, 255, 255); text-decoration-thickness: initial; text-decoration-style: initial; text-decoration-color: initial; float: none; display: inline !important;&quot;&gt;fin parcours ingredients de la recette courante&lt;/span&gt;" style="text;whiteSpace=wrap;html=1;" parent="1" vertex="1">
          <mxGeometry x="-1279" y="-300" width="270" height="30" as="geometry" />
        </mxCell>
        <mxCell id="x6GWotwJrIF0XYn0G7Yb-130" value="&lt;div style=&quot;text-align: center;&quot;&gt;&lt;font color=&quot;#333333&quot;&gt;&lt;span style=&quot;font-size: 17px; background-color: rgb(255, 255, 255);&quot;&gt;&lt;b&gt;check tout les ingredients selectionné sont dans la recette!&lt;/b&gt;&lt;/span&gt;&lt;/font&gt;&lt;/div&gt;" style="text;whiteSpace=wrap;html=1;" parent="1" vertex="1">
          <mxGeometry x="-820" y="-490" width="270" height="63.86" as="geometry" />
        </mxCell>
        <mxCell id="x6GWotwJrIF0XYn0G7Yb-140" value="&lt;b style=&quot;border-color: var(--border-color); color: rgb(51, 51, 51); font-size: 17px; text-align: center;&quot;&gt;check tout les ustensiles sélectionnée sont dans la recette!&lt;/b&gt;" style="text;whiteSpace=wrap;html=1;" parent="1" vertex="1">
          <mxGeometry x="320" y="-490" width="300" height="40" as="geometry" />
        </mxCell>
        <mxCell id="O5vsKDW0K3qQkv62i4YU-2" value="&lt;span style=&quot;color: rgb(51, 51, 51); font-family: Helvetica; font-size: 17px; font-style: normal; font-variant-ligatures: normal; font-variant-caps: normal; font-weight: 700; letter-spacing: normal; orphans: 2; text-align: center; text-indent: 0px; text-transform: none; widows: 2; word-spacing: 0px; -webkit-text-stroke-width: 0px; background-color: rgb(255, 255, 255); text-decoration-thickness: initial; text-decoration-style: initial; text-decoration-color: initial; float: none; display: inline !important;&quot;&gt;il reste des tags à parcourir&lt;/span&gt;" style="text;whiteSpace=wrap;html=1;" parent="1" vertex="1">
          <mxGeometry x="19" y="-430" width="260" height="40" as="geometry" />
        </mxCell>
        <mxCell id="O5vsKDW0K3qQkv62i4YU-3" value="" style="html=1;jettySize=18;whiteSpace=wrap;fontSize=13;strokeColor=#5E5E5E;strokeWidth=1.5;rounded=1;arcSize=12;edgeStyle=orthogonalEdgeStyle;startArrow=none;endArrow=block;endFill=1;exitX=0.704;exitY=0.143;exitPerimeter=0;lucidId=mAPGdp5QwOhR;exitDx=0;exitDy=0;" parent="1" source="O2ZRJQ_E5Z44itb4C0EZ-86" edge="1">
          <mxGeometry width="100" height="100" relative="1" as="geometry">
            <Array as="points" />
            <mxPoint x="-329" y="-584" as="targetPoint" />
            <mxPoint x="-330" y="-390" as="sourcePoint" />
          </mxGeometry>
        </mxCell>
      </root>
    </mxGraphModel>
  </diagram>
</mxfile>
